<?xml version="1.0"?>
<svg xmlns="http://www.w3.org/2000/svg" xmlns:xlink="http://www.w3.org/1999/xlink" xmlns:svgjs="http://svgjs.com/svgjs" version="1.1" width="512" height="512" x="0" y="0" viewBox="0 0 504.916 504.916" style="enable-background:new 0 0 512 512" xml:space="preserve" class=""><g><g xmlns="http://www.w3.org/2000/svg"><path d="m218.517 390.606c9.271-2.32 19.039-4.434 28.097-7.602 10.314-5.966 2.121-14.712-6.609-16.063-9.425-2.171-18.988-8.019-28.829-6.512-19.718 4.886-12.405 34.89 7.341 30.177z" fill="#94c0d4" data-original="#000000" style="" class=""/><path d="m406.836 248.814c-.731-8.288-8.055-14.411-16.341-13.663-10.046.898-21.629 1.566-31.843 2.141-17.708.919-35.733 1.71-53.426 2.351-14.962.506-49.737 2.13-64.273 1.927-11.425.939-35.253-6.752-33.434 12.301 4.175 15.637 22.721 5.241 33.932 6.19 21.242-1.146 42.535-.068 63.814.504 28.641.95 56.825 2.541 85.529 4.585 9.109.708 16.941-7.216 16.042-16.336z" fill="#94c0d4" data-original="#000000" style="" class=""/><path d="m389.12 121.828c-17.092.951-33.965 1.252-50.978.884-38.355-.288-79.603-10.563-116.296 5.349-7.063 3.17-6.019 14.574 1.779 16.146 15.315 3.649 30.757 5.191 46.439 5.24 19.485-.065 38.727-5.564 58.195-6.171 16.731-1.017 33.803-2.425 50.495-3.751 7.655-1.419 21.503 1.593 21.397-9.887-.273-5.683-5.752-8.815-11.031-7.81z" fill="#94c0d4" data-original="#000000" style="" class=""/><path d="m138.724 368.818c-2.896-1.618-7.061-2.999-10.129-4.205-6.915-2.284-13.845-6.476-21.291-3.357-19.423 7.825-7.643 37.4 11.835 29.748 6.606-2.691 13.596-5.217 19.882-8.689 5.027-2.901 4.915-10.806-.297-13.497z" fill="#94c0d4" data-original="#000000" style="" class=""/><path d="m139.669 244.466c-2.867-1.75-7.034-3.322-10.091-4.666-6.813-2.536-13.534-7.039-21.1-4.323-19.757 6.814-9.516 36.891 10.287 30.252 6.829-2.384 14.038-4.584 20.585-7.766 5.192-2.638 5.444-10.597.319-13.497z" fill="#94c0d4" data-original="#000000" style="" class=""/><path d="m143.215 128.601c-2.901-1.875-7.155-3.626-10.261-5.099-6.735-2.688-13.249-7.454-20.891-5.181-20.004 5.749-11.383 36.195 8.658 30.622 7.16-2.086 14.704-3.969 21.623-6.871 5.377-2.353 5.967-10.421.871-13.471z" fill="#94c0d4" data-original="#000000" style="" class=""/><path d="m498.263 469.986c-15.364-10.367-32.058-19.785-48.1-28.993 17.219-19.971 24.086-48.777 14.185-76.962-28.884-76.833-150.197-61.068-153.091 23.779-2.384 44.708 32.144 79.442 76.473 79.133 20.574 1.3 38.863-5.247 52.853-16.634.163.266.341.529.552.785 4.986 6.582 13.136 14.984 18.778 21.115 7.428 7.408 13.708 15.842 21.334 22.85 16.43 11.047 33.371-13.867 17.016-25.073zm-143.445-43.205c-27.014-28.897-12.52-88.334 28.841-94.54 36.039-5.858 71.426 22.209 66.718 59.96-3.721 50.048-61.797 66.39-95.559 34.58z" fill="#94c0d4" data-original="#000000" style="" class=""/><path d="m285.356 479.847c-59.322-6.253-119.662-6.996-179.234-7.29-94.556 16.746-75.56-101.383-73.841-161.904 2.617-75.6-7.188-151.533-.01-226.883-5.413-65.796 182.292-55.641 228.559-59.559 57.125-1.471 114.839-3.662 171.177 7.363 56.31 4.438 55.851 60.833 51.719 104.65-1.805 45.399.089 93.772-2.022 139.506-.59 10.951 16.943 11.388 16.915.398 1.434-59.002 1.47-120.311 4.107-179.382 3.999-106.811-129.245-89.734-202.665-93.262-61.207 3.819-278.742-12.949-291.181 63.001-9.684 67.513-6.519 136.234-5.641 204.013-.22 97.596-33.493 253.328 118.247 228.237 53.28-.903 109.543-3.357 162.759-2.007 10.386.262 11.637-15.804 1.111-16.881z" fill="#94c0d4" data-original="#000000" style="" class=""/></g></g></svg>
